# xmcd
#
# Track frame offsets:
#        150
#        16172
#        31822
#        47658
#        65686
#        83870
#        97065
#        120400
#        136625
#        148572
#        165713
#        178312
#        199353
#        214388
#
# Disc length: 3212 seconds
#
# Revision: 0
# Processed by: cddbd v1.5.1PL0 Copyright (c) Steve Scherf et al.
# Submitted via: ExactAudioCopy v0.95a5
#
DISCID=c70c8a0e
DTITLE=RICKY FANTE - REWIND
DYEAR=2004
DGENRE=Soul
TTITLE0=I Let You Go
TTITLE1=It Ain't Easy(On Your Own)
TTITLE2=Smile
TTITLE3=Why
TTITLE4=Are You Lonely Too?
TTITLE5=Love Doesn't Live Here No More
TTITLE6=If It's Over Now
TTITLE7=He Don't Love You
TTITLE8=My Song
TTITLE9=If It's Love
TTITLE10=Oh Yeah
TTITLE11=A Woman's Touch
TTITLE12=It Ain't Easy(On Your Own)Remix
TTITLE13=All Wanted(Japan Only Bonus Tracks)
EXTD=
EXTT0=
EXTT1=
EXTT2=
EXTT3=
EXTT4=
EXTT5=
EXTT6=
EXTT7=
EXTT8=
EXTT9=
EXTT10=
EXTT11=
EXTT12=
EXTT13=
PLAYORDER=
